<svg version="1.1" viewBox="0.0 0.0 564.0 371.0" fill="none" stroke="none" stroke-linecap="square" stroke-miterlimit="10" width="564" height="371" xmlns:xlink="http://www.w3.org/1999/xlink" xmlns="http://www.w3.org/2000/svg"><path fill="#ffffff" d="M0 0L564.0 0L564.0 371.0L0 371.0L0 0Z" fill-rule="nonzero"/><path stroke="#333333" stroke-width="1.0" stroke-linecap="butt" d="M56.5 303.5L545.5 303.5" fill-rule="nonzero"/><path stroke="#cccccc" stroke-width="1.0" stroke-linecap="butt" d="M56.5 240.5L545.5 240.5" fill-rule="nonzero"/><path stroke="#cccccc" stroke-width="1.0" stroke-linecap="butt" d="M56.5 177.5L545.5 177.5" fill-rule="nonzero"/><path stroke="#cccccc" stroke-width="1.0" stroke-linecap="butt" d="M56.5 114.5L545.5 114.5" fill-rule="nonzero"/><path stroke="#cccccc" stroke-width="1.0" stroke-linecap="butt" d="M56.5 51.5L545.5 51.5" fill-rule="nonzero"/><clipPath id="id_0"><path d="M56.55 51.916668L545.45 51.916668L545.45 303.45L56.55 303.45L56.55 51.916668Z" clip-rule="nonzero"/></clipPath><path fill="#4285f4" fill-opacity="0.3019608" clip-path="url(#id_0)" d="M56.55 303.45L301.0 177.68333L545.45 51.916668L545.45 303.45L301.0 303.45L56.55 303.45Z" fill-rule="nonzero"/><path fill="#ea4335" fill-opacity="0.3019608" clip-path="url(#id_0)" d="M56.55 51.916668L301.0 177.68333L545.45 303.45L545.45 303.45L301.0 303.45L56.55 303.45Z" fill-rule="nonzero"/><path stroke="#4285f4" stroke-width="2.0" stroke-linecap="butt" clip-path="url(#id_0)" d="M56.55 303.45L301.0 177.68333L545.45 51.916668" fill-rule="nonzero"/><path stroke="#ea4335" stroke-width="2.0" stroke-linecap="butt" clip-path="url(#id_0)" d="M56.55 51.916668L301.0 177.68333L545.45 303.45" fill-rule="nonzero"/><path fill="#000000" fill-opacity="0.0" clip-path="url(#id_0)" d="M59.55 303.45C59.55 305.10684 58.206856 306.45 56.55 306.45C54.893147 306.45 53.55 305.10684 53.55 303.45C53.55 301.79315 54.893147 300.45 56.55 300.45C58.206856 300.45 59.55 301.79315 59.55 303.45Z" fill-rule="nonzero"/><path fill="#000000" fill-opacity="0.0" clip-path="url(#id_0)" d="M304.0 177.68333C304.0 179.3402 302.65686 180.68333 301.0 180.68333C299.34314 180.68333 298.0 179.3402 298.0 177.68333C298.0 176.02647 299.34314 174.68333 301.0 174.68333C302.65686 174.68333 304.0 176.02647 304.0 177.68333Z" fill-rule="nonzero"/><path fill="#000000" fill-opacity="0.0" clip-path="url(#id_0)" d="M548.45 51.916668C548.45 53.57352 547.1069 54.916668 545.45 54.916668C543.79315 54.916668 542.45 53.57352 542.45 51.916668C542.45 50.25981 543.79315 48.916668 545.45 48.916668C547.1069 48.916668 548.45 50.25981 548.45 51.916668Z" fill-rule="nonzero"/><path fill="#000000" fill-opacity="0.0" clip-path="url(#id_0)" d="M59.55 51.916668C59.55 53.57352 58.206856 54.916668 56.55 54.916668C54.893147 54.916668 53.55 53.57352 53.55 51.916668C53.55 50.25981 54.893147 48.916668 56.55 48.916668C58.206856 48.916668 59.55 50.25981 59.55 51.916668Z" fill-rule="nonzero"/><path fill="#000000" fill-opacity="0.0" clip-path="url(#id_0)" d="M304.0 177.68333C304.0 179.3402 302.65686 180.68333 301.0 180.68333C299.34314 180.68333 298.0 179.3402 298.0 177.68333C298.0 176.02647 299.34314 174.68333 301.0 174.68333C302.65686 174.68333 304.0 176.02647 304.0 177.68333Z" fill-rule="nonzero"/><path fill="#000000" fill-opacity="0.0" clip-path="url(#id_0)" d="M548.45 303.45C548.45 305.10684 547.1069 306.45 545.45 306.45C543.79315 306.45 542.45 305.10684 542.45 303.45C542.45 301.79315 543.79315 300.45 545.45 300.45C547.1069 300.45 548.45 301.79315 548.45 303.45Z" fill-rule="nonzero"/><path fill="#000000" d="M33.05 303.21564Q33.05 301.6844 33.3625 300.7625Q33.675 299.825 34.284374 299.325Q34.909374 298.825 35.846874 298.825Q36.534374 298.825 37.05 299.10626Q37.58125 299.3875 37.925 299.91876Q38.26875 300.4344 38.45625 301.1844Q38.64375 301.9344 38.64375 303.21564Q38.64375 304.73126 38.33125 305.65314Q38.034374 306.575 37.409374 307.09064Q36.8 307.59064 35.846874 307.59064Q34.6125 307.59064 33.89375 306.7Q33.05 305.6375 33.05 303.21564ZM34.128124 303.21564Q34.128124 305.325 34.628124 306.02814Q35.128124 306.73126 35.846874 306.73126Q36.58125 306.73126 37.065624 306.02814Q37.565624 305.325 37.565624 303.21564Q37.565624 301.09064 37.065624 300.40314Q36.58125 299.7 35.83125 299.7Q35.1125 299.7 34.675 300.3094Q34.128124 301.09064 34.128124 303.21564ZM40.253124 300.91876Q40.253124 299.9969 40.70625 299.35626Q41.175 298.71564 42.05 298.71564Q42.8625 298.71564 43.39375 299.29376Q43.925 299.8719 43.925 300.98126Q43.925 302.075 43.378124 302.66876Q42.846874 303.2469 42.065624 303.2469Q41.284374 303.2469 40.76875 302.66876Q40.253124 302.09064 40.253124 300.91876ZM42.08125 299.4344Q41.690624 299.4344 41.425 299.77814Q41.175 300.1219 41.175 301.02814Q41.175 301.85626 41.425 302.2Q41.690624 302.52814 42.08125 302.52814Q42.4875 302.52814 42.7375 302.1844Q43.003124 301.84064 43.003124 300.95Q43.003124 300.10626 42.7375 299.77814Q42.471874 299.4344 42.08125 299.4344ZM42.08125 307.7625L46.784374 298.71564L47.64375 298.71564L42.95625 307.7625L42.08125 307.7625ZM45.8 305.4344Q45.8 304.5125 46.253124 303.8719Q46.721874 303.23126 47.6125 303.23126Q48.425 303.23126 48.95625 303.8094Q49.4875 304.3719 49.4875 305.4969Q49.4875 306.59064 48.940624 307.1844Q48.409374 307.7625 47.6125 307.7625Q46.846874 307.7625 46.315624 307.1844Q45.8 306.60626 45.8 305.4344ZM47.64375 303.95Q47.2375 303.95 46.971874 304.29376Q46.721874 304.6375 46.721874 305.54376Q46.721874 306.35626 46.9875 306.7Q47.253124 307.04376 47.64375 307.04376Q48.034374 307.04376 48.3 306.7Q48.565624 306.35626 48.565624 305.45Q48.565624 304.6219 48.3 304.29376Q48.034374 303.95 47.64375 303.95Z" fill-rule="nonzero"/><path fill="#000000" d="M31.596874 243.55104L31.596874 244.56667L25.909374 244.56667Q25.909374 244.19167 26.034374 243.83229Q26.253124 243.25417 26.721874 242.69167Q27.20625 242.12917 28.1125 241.39479Q29.51875 240.23854 30.003124 239.56667Q30.503124 238.89479 30.503124 238.30104Q30.503124 237.67604 30.05 237.25417Q29.596874 236.81667 28.878124 236.81667Q28.1125 236.81667 27.659374 237.26979Q27.20625 237.72292 27.190624 238.53542L26.1125 238.42604Q26.221874 237.20729 26.940624 236.58229Q27.675 235.94167 28.909374 235.94167Q30.14375 235.94167 30.8625 236.62917Q31.58125 237.31667 31.58125 238.33229Q31.58125 238.84792 31.3625 239.34792Q31.159374 239.83229 30.659374 240.39479Q30.175 240.94167 29.05 241.89479Q28.096874 242.69167 27.815624 242.98854Q27.55 243.26979 27.378124 243.55104L31.596874 243.55104ZM33.05 242.31667L34.159374 242.22292Q34.284374 243.03542 34.721874 243.44167Q35.175 243.84792 35.815624 243.84792Q36.565624 243.84792 37.096874 243.26979Q37.628124 242.69167 37.628124 241.75417Q37.628124 240.84792 37.1125 240.33229Q36.6125 239.80104 35.784374 239.80104Q35.284374 239.80104 34.8625 240.03542Q34.45625 240.26979 34.221874 240.62917L33.2375 240.50417L34.065624 236.09792L38.346874 236.09792L38.346874 237.09792L34.909374 237.09792L34.45625 239.41042Q35.221874 238.86354 36.065624 238.86354Q37.190624 238.86354 37.95625 239.64479Q38.7375 240.42604 38.7375 241.66042Q38.7375 242.81667 38.065624 243.67604Q37.2375 244.70729 35.815624 244.70729Q34.64375 244.70729 33.89375 244.05104Q33.159374 243.39479 33.05 242.31667ZM40.253124 238.03542Q40.253124 237.11354 40.70625 236.47292Q41.175 235.83229 42.05 235.83229Q42.8625 235.83229 43.39375 236.41042Q43.925 236.98854 43.925 238.09792Q43.925 239.19167 43.378124 239.78542Q42.846874 240.36354 42.065624 240.36354Q41.284374 240.36354 40.76875 239.78542Q40.253124 239.20729 40.253124 238.03542ZM42.08125 236.55104Q41.690624 236.55104 41.425 236.89479Q41.175 237.23854 41.175 238.14479Q41.175 238.97292 41.425 239.31667Q41.690624 239.64479 42.08125 239.64479Q42.4875 239.64479 42.7375 239.30104Q43.003124 238.95729 43.003124 238.06667Q43.003124 237.22292 42.7375 236.89479Q42.471874 236.55104 42.08125 236.55104ZM42.08125 244.87917L46.784374 235.83229L47.64375 235.83229L42.95625 244.87917L42.08125 244.87917ZM45.8 242.55104Q45.8 241.62917 46.253124 240.98854Q46.721874 240.34792 47.6125 240.34792Q48.425 240.34792 48.95625 240.92604Q49.4875 241.48854 49.4875 242.61354Q49.4875 243.70729 48.940624 244.30104Q48.409374 244.87917 47.6125 244.87917Q46.846874 244.87917 46.315624 244.30104Q45.8 243.72292 45.8 242.55104ZM47.64375 241.06667Q47.2375 241.06667 46.971874 241.41042Q46.721874 241.75417 46.721874 242.66042Q46.721874 243.47292 46.9875 243.81667Q47.253124 244.16042 47.64375 244.16042Q48.034374 244.16042 48.3 243.81667Q48.565624 243.47292 48.565624 242.56667Q48.565624 241.73854 48.3 241.41042Q48.034374 241.06667 47.64375 241.06667Z" fill-rule="nonzero"/><path fill="#000000" d="M26.05 179.43333L27.159374 179.33958Q27.284374 180.15208 27.721874 180.55833Q28.175 180.96458 28.815624 180.96458Q29.565624 180.96458 30.096874 180.38646Q30.628124 179.80833 30.628124 178.87083Q30.628124 177.96458 30.1125 177.44896Q29.6125 176.91771 28.784374 176.91771Q28.284374 176.91771 27.8625 177.15208Q27.45625 177.38646 27.221874 177.74583L26.2375 177.62083L27.065624 173.21458L31.346874 173.21458L31.346874 174.21458L27.909374 174.21458L27.45625 176.52708Q28.221874 175.98021 29.065624 175.98021Q30.190624 175.98021 30.95625 176.76146Q31.7375 177.54271 31.7375 178.77708Q31.7375 179.93333 31.065624 180.79271Q30.2375 181.82396 28.815624 181.82396Q27.64375 181.82396 26.89375 181.16771Q26.159374 180.51146 26.05 179.43333ZM33.05 177.44896Q33.05 175.91771 33.3625 174.99583Q33.675 174.05833 34.284374 173.55833Q34.909374 173.05833 35.846874 173.05833Q36.534374 173.05833 37.05 173.33958Q37.58125 173.62083 37.925 174.15208Q38.26875 174.66771 38.45625 175.41771Q38.64375 176.16771 38.64375 177.44896Q38.64375 178.96458 38.33125 179.88646Q38.034374 180.80833 37.409374 181.32396Q36.8 181.82396 35.846874 181.82396Q34.6125 181.82396 33.89375 180.93333Q33.05 179.87083 33.05 177.44896ZM34.128124 177.44896Q34.128124 179.55833 34.628124 180.26146Q35.128124 180.96458 35.846874 180.96458Q36.58125 180.96458 37.065624 180.26146Q37.565624 179.55833 37.565624 177.44896Q37.565624 175.32396 37.065624 174.63646Q36.58125 173.93333 35.83125 173.93333Q35.1125 173.93333 34.675 174.54271Q34.128124 175.32396 34.128124 177.44896ZM40.253124 175.15208Q40.253124 174.23021 40.70625 173.58958Q41.175 172.94896 42.05 172.94896Q42.8625 172.94896 43.39375 173.52708Q43.925 174.10521 43.925 175.21458Q43.925 176.30833 43.378124 176.90208Q42.846874 177.48021 42.065624 177.48021Q41.284374 177.48021 40.76875 176.90208Q40.253124 176.32396 40.253124 175.15208ZM42.08125 173.66771Q41.690624 173.66771 41.425 174.01146Q41.175 174.35521 41.175 175.26146Q41.175 176.08958 41.425 176.43333Q41.690624 176.76146 42.08125 176.76146Q42.4875 176.76146 42.7375 176.41771Q43.003124 176.07396 43.003124 175.18333Q43.003124 174.33958 42.7375 174.01146Q42.471874 173.66771 42.08125 173.66771ZM42.08125 181.99583L46.784374 172.94896L47.64375 172.94896L42.95625 181.99583L42.08125 181.99583ZM45.8 179.66771Q45.8 178.74583 46.253124 178.10521Q46.721874 177.46458 47.6125 177.46458Q48.425 177.46458 48.95625 178.04271Q49.4875 178.60521 49.4875 179.73021Q49.4875 180.82396 48.940624 181.41771Q48.409374 181.99583 47.6125 181.99583Q46.846874 181.99583 46.315624 181.41771Q45.8 180.83958 45.8 179.66771ZM47.64375 178.18333Q47.2375 178.18333 46.971874 178.52708Q46.721874 178.87083 46.721874 179.77708Q46.721874 180.58958 46.9875 180.93333Q47.253124 181.27708 47.64375 181.27708Q48.034374 181.27708 48.3 180.93333Q48.565624 180.58958 48.565624 179.68333Q48.565624 178.85521 48.3 178.52708Q48.034374 178.18333 47.64375 178.18333Z" fill-rule="nonzero"/><path fill="#000000" d="M26.1125 111.33125L26.1125 110.31563L31.675 110.31563L31.675 111.14375Q30.8625 112.01875 30.05 113.47188Q29.253124 114.90938 28.815624 116.44063Q28.4875 117.51875 28.409374 118.8L27.315624 118.8Q27.33125 117.78438 27.70625 116.34688Q28.096874 114.90938 28.8 113.58125Q29.51875 112.25313 30.33125 111.33125L26.1125 111.33125ZM33.05 116.55L34.159374 116.45625Q34.284374 117.26875 34.721874 117.675Q35.175 118.08125 35.815624 118.08125Q36.565624 118.08125 37.096874 117.50313Q37.628124 116.925 37.628124 115.9875Q37.628124 115.08125 37.1125 114.56563Q36.6125 114.03438 35.784374 114.03438Q35.284374 114.03438 34.8625 114.26875Q34.45625 114.50313 34.221874 114.8625L33.2375 114.7375L34.065624 110.33125L38.346874 110.33125L38.346874 111.33125L34.909374 111.33125L34.45625 113.64375Q35.221874 113.09688 36.065624 113.09688Q37.190624 113.09688 37.95625 113.87813Q38.7375 114.65938 38.7375 115.89375Q38.7375 117.05 38.065624 117.90938Q37.2375 118.94063 35.815624 118.94063Q34.64375 118.94063 33.89375 118.28438Q33.159374 117.62813 33.05 116.55ZM40.253124 112.26875Q40.253124 111.34688 40.70625 110.70625Q41.175 110.06563 42.05 110.06563Q42.8625 110.06563 43.39375 110.64375Q43.925 111.22188 43.925 112.33125Q43.925 113.425 43.378124 114.01875Q42.846874 114.59688 42.065624 114.59688Q41.284374 114.59688 40.76875 114.01875Q40.253124 113.44063 40.253124 112.26875ZM42.08125 110.78438Q41.690624 110.78438 41.425 111.12813Q41.175 111.47188 41.175 112.37813Q41.175 113.20625 41.425 113.55Q41.690624 113.87813 42.08125 113.87813Q42.4875 113.87813 42.7375 113.53438Q43.003124 113.19063 43.003124 112.3Q43.003124 111.45625 42.7375 111.12813Q42.471874 110.78438 42.08125 110.78438ZM42.08125 119.1125L46.784374 110.06563L47.64375 110.06563L42.95625 119.1125L42.08125 119.1125ZM45.8 116.78438Q45.8 115.8625 46.253124 115.22188Q46.721874 114.58125 47.6125 114.58125Q48.425 114.58125 48.95625 115.15938Q49.4875 115.72188 49.4875 116.84688Q49.4875 117.94063 48.940624 118.53438Q48.409374 119.1125 47.6125 119.1125Q46.846874 119.1125 46.315624 118.53438Q45.8 117.95625 45.8 116.78438ZM47.64375 115.3Q47.2375 115.3 46.971874 115.64375Q46.721874 115.9875 46.721874 116.89375Q46.721874 117.70625 46.9875 118.05Q47.253124 118.39375 47.64375 118.39375Q48.034374 118.39375 48.3 118.05Q48.565624 117.70625 48.565624 116.8Q48.565624 115.97188 48.3 115.64375Q48.034374 115.3 47.64375 115.3Z" fill-rule="nonzero"/><path fill="#000000" d="M23.01875 55.916668L21.971874 55.916668L21.971874 49.197918Q21.58125 49.557293 20.95625 49.932293Q20.346874 50.291668 19.8625 50.463543L19.8625 49.447918Q20.7375 49.026043 21.39375 48.447918Q22.065624 47.854168 22.346874 47.291668L23.01875 47.291668L23.01875 55.916668ZM26.05 51.682293Q26.05 50.151043 26.3625 49.229168Q26.675 48.291668 27.284374 47.791668Q27.909374 47.291668 28.846874 47.291668Q29.534374 47.291668 30.05 47.572918Q30.58125 47.854168 30.925 48.385418Q31.26875 48.901043 31.45625 49.651043Q31.64375 50.401043 31.64375 51.682293Q31.64375 53.197918 31.33125 54.119793Q31.034374 55.041668 30.409374 55.557293Q29.8 56.057293 28.846874 56.057293Q27.6125 56.057293 26.89375 55.166668Q26.05 54.104168 26.05 51.682293ZM27.128124 51.682293Q27.128124 53.791668 27.628124 54.494793Q28.128124 55.197918 28.846874 55.197918Q29.58125 55.197918 30.065624 54.494793Q30.565624 53.791668 30.565624 51.682293Q30.565624 49.557293 30.065624 48.869793Q29.58125 48.166668 28.83125 48.166668Q28.1125 48.166668 27.675 48.776043Q27.128124 49.557293 27.128124 51.682293ZM33.05 51.682293Q33.05 50.151043 33.3625 49.229168Q33.675 48.291668 34.284374 47.791668Q34.909374 47.291668 35.846874 47.291668Q36.534374 47.291668 37.05 47.572918Q37.58125 47.854168 37.925 48.385418Q38.26875 48.901043 38.45625 49.651043Q38.64375 50.401043 38.64375 51.682293Q38.64375 53.197918 38.33125 54.119793Q38.034374 55.041668 37.409374 55.557293Q36.8 56.057293 35.846874 56.057293Q34.6125 56.057293 33.89375 55.166668Q33.05 54.104168 33.05 51.682293ZM34.128124 51.682293Q34.128124 53.791668 34.628124 54.494793Q35.128124 55.197918 35.846874 55.197918Q36.58125 55.197918 37.065624 54.494793Q37.565624 53.791668 37.565624 51.682293Q37.565624 49.557293 37.065624 48.869793Q36.58125 48.166668 35.83125 48.166668Q35.1125 48.166668 34.675 48.776043Q34.128124 49.557293 34.128124 51.682293ZM40.253124 49.385418Q40.253124 48.463543 40.70625 47.822918Q41.175 47.182293 42.05 47.182293Q42.8625 47.182293 43.39375 47.760418Q43.925 48.338543 43.925 49.447918Q43.925 50.541668 43.378124 51.135418Q42.846874 51.713543 42.065624 51.713543Q41.284374 51.713543 40.76875 51.135418Q40.253124 50.557293 40.253124 49.385418ZM42.08125 47.901043Q41.690624 47.901043 41.425 48.244793Q41.175 48.588543 41.175 49.494793Q41.175 50.322918 41.425 50.666668Q41.690624 50.994793 42.08125 50.994793Q42.4875 50.994793 42.7375 50.651043Q43.003124 50.307293 43.003124 49.416668Q43.003124 48.572918 42.7375 48.244793Q42.471874 47.901043 42.08125 47.901043ZM42.08125 56.229168L46.784374 47.182293L47.64375 47.182293L42.95625 56.229168L42.08125 56.229168ZM45.8 53.901043Q45.8 52.979168 46.253124 52.338543Q46.721874 51.697918 47.6125 51.697918Q48.425 51.697918 48.95625 52.276043Q49.4875 52.838543 49.4875 53.963543Q49.4875 55.057293 48.940624 55.651043Q48.409374 56.229168 47.6125 56.229168Q46.846874 56.229168 46.315624 55.651043Q45.8 55.072918 45.8 53.901043ZM47.64375 52.416668Q47.2375 52.416668 46.971874 52.760418Q46.721874 53.104168 46.721874 54.010418Q46.721874 54.822918 46.9875 55.166668Q47.253124 55.510418 47.64375 55.510418Q48.034374 55.510418 48.3 55.166668Q48.565624 54.822918 48.565624 53.916668Q48.565624 53.088543 48.3 52.760418Q48.034374 52.416668 47.64375 52.416668Z" fill-rule="nonzero"/><path fill="#000000" d="M56.80001 344.79376L55.815636 344.79376L53.409386 339.10626L54.45626 339.10626L56.30001 343.6219L58.17501 339.10626L59.221886 339.10626L56.80001 344.79376ZM58.30001 334.95L58.20626 333.84064Q59.01876 333.71564 59.42501 333.27814Q59.83126 332.825 59.83126 332.1844Q59.83126 331.4344 59.253136 330.90314Q58.67501 330.3719 57.73751 330.3719Q56.83126 330.3719 56.315636 330.8875Q55.784386 331.3875 55.784386 332.21564Q55.784386 332.71564 56.01876 333.1375Q56.253136 333.54376 56.61251 333.77814L56.48751 334.7625L52.08126 333.9344L52.08126 329.65314L53.08126 329.65314L53.08126 333.09064L55.39376 333.54376Q54.846886 332.77814 54.846886 331.9344Q54.846886 330.8094 55.628136 330.04376Q56.409386 329.2625 57.64376 329.2625Q58.80001 329.2625 59.659386 329.9344Q60.690636 330.7625 60.690636 332.1844Q60.690636 333.35626 60.034386 334.10626Q59.378136 334.84064 58.30001 334.95ZM58.26876 320.59064L58.409386 319.5594Q59.471886 319.73126 60.08126 320.4344Q60.690636 321.1375 60.690636 322.15314Q60.690636 323.4344 59.86251 324.21564Q59.01876 324.98126 57.45626 324.98126Q56.45626 324.98126 55.70626 324.65314Q54.940636 324.3094 54.565636 323.6375Q54.190636 322.95 54.190636 322.1375Q54.190636 321.1375 54.70626 320.4969Q55.20626 319.84064 56.159386 319.65314L56.315636 320.6844Q55.690636 320.825 55.378136 321.2Q55.05001 321.575 55.05001 322.10626Q55.05001 322.90314 55.628136 323.40314Q56.190636 323.90314 57.42501 323.90314Q58.690636 323.90314 59.253136 323.41876Q59.815636 322.9344 59.815636 322.16876Q59.815636 321.54376 59.440636 321.1375Q59.065636 320.71564 58.26876 320.59064ZM60.55001 318.65314L54.33126 318.65314L54.33126 317.71564L55.20626 317.71564Q54.73751 317.41876 54.471886 316.9344Q54.190636 316.45 54.190636 315.825Q54.190636 315.1375 54.471886 314.7Q54.753136 314.2469 55.26876 314.075Q54.190636 313.325 54.190636 312.15314Q54.190636 311.21564 54.70626 310.73126Q55.20626 310.23126 56.284386 310.23126L60.55001 310.23126L60.55001 311.27814L56.628136 311.27814Q56.003136 311.27814 55.721886 311.3875Q55.440636 311.48126 55.26876 311.7469Q55.096886 312.0125 55.096886 312.3875Q55.096886 313.04376 55.534386 313.48126Q55.971886 313.90314 56.940636 313.90314L60.55001 313.90314L60.55001 314.96564L56.503136 314.96564Q55.80001 314.96564 55.45626 315.23126Q55.096886 315.48126 55.096886 316.0594Q55.096886 316.5125 55.33126 316.8875Q55.565636 317.2625 56.01876 317.4344Q56.471886 317.60626 57.315636 317.60626L60.55001 317.60626L60.55001 318.65314Z" fill-rule="nonzero"/><path fill="#000000" d="M302.73438 341.95L302.59375 340.8875Q303.48438 340.71564 303.89062 340.27814Q304.28125 339.84064 304.28125 339.21564Q304.28125 338.46564 303.76562 337.95Q303.25 337.4344 302.48438 337.4344Q301.76562 337.4344 301.29688 337.91876Q300.8125 338.3875 300.8125 339.1219Q300.8125 339.41876 300.9375 339.8719L300.0 339.7469Q300.01562 339.6375 300.01562 339.575Q300.01562 338.90314 299.67188 338.3719Q299.3125 337.825 298.57812 337.825Q298.0 337.825 297.625 338.21564Q297.23438 338.60626 297.23438 339.23126Q297.23438 339.84064 297.625 340.2625Q298.01562 340.66876 298.78125 340.77814L298.59375 341.84064Q297.54688 341.65314 296.96875 340.96564Q296.375 340.27814 296.375 339.2625Q296.375 338.5594 296.6875 337.96564Q296.98438 337.3719 297.5 337.0594Q298.01562 336.7469 298.60938 336.7469Q299.15625 336.7469 299.625 337.04376Q300.07812 337.34064 300.34375 337.91876Q300.51562 337.16876 301.07812 336.7469Q301.625 336.325 302.46875 336.325Q303.59375 336.325 304.375 337.15314Q305.15625 337.96564 305.15625 339.21564Q305.15625 340.34064 304.48438 341.09064Q303.79688 341.84064 302.73438 341.95ZM300.76562 334.95Q299.23438 334.95 298.3125 334.6375Q297.375 334.325 296.875 333.71564Q296.375 333.09064 296.375 332.15314Q296.375 331.46564 296.65625 330.95Q296.9375 330.41876 297.46875 330.075Q297.98438 329.73126 298.73438 329.54376Q299.48438 329.35626 300.76562 329.35626Q302.28125 329.35626 303.20312 329.66876Q304.125 329.96564 304.64062 330.59064Q305.14062 331.2 305.14062 332.15314Q305.14062 333.3875 304.25 334.10626Q303.1875 334.95 300.76562 334.95ZM300.76562 333.8719Q302.875 333.8719 303.57812 333.3719Q304.28125 332.8719 304.28125 332.15314Q304.28125 331.41876 303.57812 330.9344Q302.875 330.4344 300.76562 330.4344Q298.64062 330.4344 297.95312 330.9344Q297.25 331.41876 297.25 332.16876Q297.25 332.8875 297.85938 333.325Q298.64062 333.8719 300.76562 333.8719ZM302.71875 320.59064L302.85938 319.5594Q303.92188 319.73126 304.53125 320.4344Q305.14062 321.1375 305.14062 322.15314Q305.14062 323.4344 304.3125 324.21564Q303.46875 324.98126 301.90625 324.98126Q300.90625 324.98126 300.15625 324.65314Q299.39062 324.3094 299.01562 323.6375Q298.64062 322.95 298.64062 322.1375Q298.64062 321.1375 299.15625 320.4969Q299.65625 319.84064 300.60938 319.65314L300.76562 320.6844Q300.14062 320.825 299.82812 321.2Q299.5 321.575 299.5 322.10626Q299.5 322.90314 300.07812 323.40314Q300.64062 323.90314 301.875 323.90314Q303.14062 323.90314 303.70312 323.41876Q304.26562 322.9344 304.26562 322.16876Q304.26562 321.54376 303.89062 321.1375Q303.51562 320.71564 302.71875 320.59064ZM305.0 318.65314L298.78125 318.65314L298.78125 317.71564L299.65625 317.71564Q299.1875 317.41876 298.92188 316.9344Q298.64062 316.45 298.64062 315.825Q298.64062 315.1375 298.92188 314.7Q299.20312 314.2469 299.71875 314.075Q298.64062 313.325 298.64062 312.15314Q298.64062 311.21564 299.15625 310.73126Q299.65625 310.23126 300.73438 310.23126L305.0 310.23126L305.0 311.27814L301.07812 311.27814Q300.45312 311.27814 300.17188 311.3875Q299.89062 311.48126 299.71875 311.7469Q299.54688 312.0125 299.54688 312.3875Q299.54688 313.04376 299.98438 313.48126Q300.42188 313.90314 301.39062 313.90314L305.0 313.90314L305.0 314.96564L300.95312 314.96564Q300.25 314.96564 299.90625 315.23126Q299.54688 315.48126 299.54688 316.0594Q299.54688 316.5125 299.78125 316.8875Q300.01562 317.2625 300.46875 317.4344Q300.92188 317.60626 301.76562 317.60626L305.0 317.60626L305.0 318.65314Z" fill-rule="nonzero"/><path fill="#000000" d="M545.7 346.10626L548.1219 351.79376L547.075 351.79376L545.2 347.29376L543.35626 351.79376L542.3094 351.79376L544.71564 346.10626L545.7 346.10626ZM541.98126 341.8875L540.96564 341.8875L540.96564 336.325L541.79376 336.325Q542.66876 337.1375 544.1219 337.95Q545.5594 338.7469 547.09064 339.1844Q548.16876 339.5125 549.45 339.59064L549.45 340.6844Q548.4344 340.66876 546.9969 340.29376Q545.5594 339.90314 544.23126 339.2Q542.90314 338.48126 541.98126 337.66876L541.98126 341.8875ZM547.2 334.95L547.10626 333.84064Q547.91876 333.71564 548.325 333.27814Q548.73126 332.825 548.73126 332.1844Q548.73126 331.4344 548.15314 330.90314Q547.575 330.3719 546.6375 330.3719Q545.73126 330.3719 545.21564 330.8875Q544.6844 331.3875 544.6844 332.21564Q544.6844 332.71564 544.91876 333.1375Q545.15314 333.54376 545.5125 333.77814L545.3875 334.7625L540.98126 333.9344L540.98126 329.65314L541.98126 329.65314L541.98126 333.09064L544.29376 333.54376Q543.7469 332.77814 543.7469 331.9344Q543.7469 330.8094 544.52814 330.04376Q545.3094 329.2625 546.54376 329.2625Q547.7 329.2625 548.5594 329.9344Q549.59064 330.7625 549.59064 332.1844Q549.59064 333.35626 548.9344 334.10626Q548.27814 334.84064 547.2 334.95ZM547.16876 320.59064L547.3094 319.5594Q548.3719 319.73126 548.98126 320.4344Q549.59064 321.1375 549.59064 322.15314Q549.59064 323.4344 548.7625 324.21564Q547.91876 324.98126 546.35626 324.98126Q545.35626 324.98126 544.60626 324.65314Q543.84064 324.3094 543.46564 323.6375Q543.09064 322.95 543.09064 322.1375Q543.09064 321.1375 543.60626 320.4969Q544.10626 319.84064 545.0594 319.65314L545.21564 320.6844Q544.59064 320.825 544.27814 321.2Q543.95 321.575 543.95 322.10626Q543.95 322.90314 544.52814 323.40314Q545.09064 323.90314 546.325 323.90314Q547.59064 323.90314 548.15314 323.41876Q548.71564 322.9344 548.71564 322.16876Q548.71564 321.54376 548.34064 321.1375Q547.96564 320.71564 547.16876 320.59064ZM549.45 318.65314L543.23126 318.65314L543.23126 317.71564L544.10626 317.71564Q543.6375 317.41876 543.3719 316.9344Q543.09064 316.45 543.09064 315.825Q543.09064 315.1375 543.3719 314.7Q543.65314 314.2469 544.16876 314.075Q543.09064 313.325 543.09064 312.15314Q543.09064 311.21564 543.60626 310.73126Q544.10626 310.23126 545.1844 310.23126L549.45 310.23126L549.45 311.27814L545.52814 311.27814Q544.90314 311.27814 544.6219 311.3875Q544.34064 311.48126 544.16876 311.7469Q543.9969 312.0125 543.9969 312.3875Q543.9969 313.04376 544.4344 313.48126Q544.8719 313.90314 545.84064 313.90314L549.45 313.90314L549.45 314.96564L545.40314 314.96564Q544.7 314.96564 544.35626 315.23126Q543.9969 315.48126 543.9969 316.0594Q543.9969 316.5125 544.23126 316.8875Q544.46564 317.2625 544.91876 317.4344Q545.3719 317.60626 546.21564 317.60626L549.45 317.60626L549.45 318.65314Z" fill-rule="nonzero"/><path fill="#4285f4" d="M192.5 20.55C192.5 19.997715 192.94771 19.55 193.5 19.55L203.5 19.55C204.05229 19.55 204.5 19.997715 204.5 20.55L204.5 30.55C204.5 31.102285 204.05229 31.55 203.5 31.55L193.5 31.55C192.94771 31.55 192.5 31.102285 192.5 30.55Z" fill-rule="nonzero"/><path fill="#1a1a1a" d="M212.48438 29.55L215.78125 20.95625L217.0 20.95625L220.51562 29.55L219.23438 29.55L218.21875 26.940624L214.64062 26.940624L213.6875 29.55L212.48438 29.55ZM214.96875 26.01875L217.875 26.01875L216.98438 23.64375Q216.5625 22.565624 216.375 21.8625Q216.20312 22.690624 215.90625 23.503124L214.96875 26.01875ZM221.28125 29.55L221.28125 23.33125L222.23438 23.33125L222.23438 24.26875Q222.59375 23.6125 222.89062 23.409374Q223.20312 23.190624 223.57812 23.190624Q224.10938 23.190624 224.65625 23.51875L224.29688 24.503124Q223.90625 24.26875 223.53125 24.26875Q223.17188 24.26875 222.89062 24.4875Q222.625 24.690624 222.51562 25.065624Q222.32812 25.628124 222.32812 26.284374L222.32812 29.55L221.28125 29.55ZM225.29688 29.55L225.29688 23.33125L226.23438 23.33125L226.23438 24.20625Q226.53125 23.7375 227.01562 23.471874Q227.5 23.190624 228.125 23.190624Q228.8125 23.190624 229.25 23.471874Q229.70312 23.753124 229.875 24.26875Q230.625 23.190624 231.79688 23.190624Q232.73438 23.190624 233.21875 23.70625Q233.71875 24.20625 233.71875 25.284374L233.71875 29.55L232.67188 29.55L232.67188 25.628124Q232.67188 25.003124 232.5625 24.721874Q232.46875 24.440624 232.20312 24.26875Q231.9375 24.096874 231.5625 24.096874Q230.90625 24.096874 230.46875 24.534374Q230.04688 24.971874 230.04688 25.940624L230.04688 29.55L228.98438 29.55L228.98438 25.503124Q228.98438 24.8 228.71875 24.45625Q228.46875 24.096874 227.89062 24.096874Q227.4375 24.096874 227.0625 24.33125Q226.6875 24.565624 226.51562 25.01875Q226.34375 25.471874 226.34375 26.315624L226.34375 29.55L225.29688 29.55ZM242.375 29.55L242.375 28.628124Q241.64062 29.690624 240.39062 29.690624Q239.84375 29.690624 239.35938 29.4875Q238.89062 29.26875 238.65625 28.95625Q238.42188 28.628124 238.32812 28.159374Q238.26562 27.8625 238.26562 27.175L238.26562 23.33125L239.32812 23.33125L239.32812 26.784374Q239.32812 27.596874 239.39062 27.89375Q239.48438 28.3 239.79688 28.55Q240.125 28.784374 240.60938 28.784374Q241.07812 28.784374 241.48438 28.55Q241.90625 28.3 242.07812 27.878124Q242.26562 27.45625 242.26562 26.659374L242.26562 23.33125L243.3125 23.33125L243.3125 29.55L242.375 29.55ZM244.875 27.690624L245.90625 27.534374Q246.0 28.159374 246.39062 28.4875Q246.79688 28.815624 247.53125 28.815624Q248.25 28.815624 248.59375 28.534374Q248.95312 28.2375 248.95312 27.83125Q248.95312 27.471874 248.64062 27.26875Q248.42188 27.128124 247.5625 26.909374Q246.40625 26.6125 245.95312 26.409374Q245.51562 26.190624 245.28125 25.815624Q245.04688 25.440624 245.04688 24.971874Q245.04688 24.565624 245.23438 24.20625Q245.42188 23.846874 245.75 23.6125Q246.0 23.440624 246.42188 23.315624Q246.84375 23.190624 247.34375 23.190624Q248.0625 23.190624 248.60938 23.409374Q249.17188 23.6125 249.4375 23.971874Q249.70312 24.33125 249.79688 24.925L248.76562 25.065624Q248.70312 24.596874 248.35938 24.33125Q248.03125 24.05 247.40625 24.05Q246.6875 24.05 246.375 24.3Q246.0625 24.534374 246.0625 24.8625Q246.0625 25.065624 246.1875 25.221874Q246.32812 25.39375 246.59375 25.503124Q246.75 25.565624 247.53125 25.76875Q248.65625 26.08125 249.09375 26.26875Q249.53125 26.45625 249.78125 26.815624Q250.03125 27.175 250.03125 27.721874Q250.03125 28.253124 249.71875 28.721874Q249.42188 29.175 248.84375 29.440624Q248.26562 29.690624 247.53125 29.690624Q246.3125 29.690624 245.67188 29.190624Q245.04688 28.675 244.875 27.690624ZM255.35938 28.784374Q254.76562 29.284374 254.21875 29.4875Q253.6875 29.690624 253.0625 29.690624Q252.03125 29.690624 251.48438 29.190624Q250.9375 28.690624 250.9375 27.909374Q250.9375 27.45625 251.14062 27.08125Q251.34375 26.690624 251.6875 26.471874Q252.03125 26.2375 252.45312 26.128124Q252.75 26.034374 253.39062 25.95625Q254.65625 25.815624 255.26562 25.596874Q255.26562 25.378124 255.26562 25.33125Q255.26562 24.675 254.96875 24.409374Q254.5625 24.065624 253.76562 24.065624Q253.03125 24.065624 252.67188 24.33125Q252.3125 24.58125 252.14062 25.2375L251.10938 25.096874Q251.25 24.440624 251.57812 24.034374Q251.90625 23.628124 252.51562 23.409374Q253.125 23.190624 253.92188 23.190624Q254.71875 23.190624 255.21875 23.378124Q255.71875 23.565624 255.95312 23.846874Q256.1875 24.128124 256.28125 24.565624Q256.32812 24.83125 256.32812 25.534374L256.32812 26.940624Q256.32812 28.409374 256.39062 28.8Q256.46875 29.190624 256.67188 29.55L255.5625 29.55Q255.40625 29.221874 255.35938 28.784374ZM255.26562 26.425Q254.6875 26.659374 253.54688 26.83125Q252.89062 26.925 252.625 27.05Q252.35938 27.159374 252.20312 27.378124Q252.0625 27.596874 252.0625 27.878124Q252.0625 28.3 252.375 28.58125Q252.70312 28.8625 253.3125 28.8625Q253.92188 28.8625 254.39062 28.596874Q254.875 28.33125 255.09375 27.8625Q255.26562 27.503124 255.26562 26.815624L255.26562 26.425ZM258.09375 30.065624L259.125 30.221874Q259.1875 30.690624 259.48438 30.909374Q259.875 31.20625 260.54688 31.20625Q261.28125 31.20625 261.67188 30.909374Q262.07812 30.6125 262.21875 30.096874Q262.3125 29.76875 262.29688 28.7375Q261.60938 29.55 260.57812 29.55Q259.29688 29.55 258.59375 28.628124Q257.89062 27.690624 257.89062 26.409374Q257.89062 25.51875 258.20312 24.76875Q258.53125 24.003124 259.14062 23.596874Q259.75 23.190624 260.57812 23.190624Q261.6875 23.190624 262.40625 24.08125L262.40625 23.33125L263.375 23.33125L263.375 28.70625Q263.375 30.159374 263.07812 30.76875Q262.78125 31.378124 262.14062 31.721874Q261.5 32.08125 260.5625 32.08125Q259.45312 32.08125 258.76562 31.58125Q258.07812 31.08125 258.09375 30.065624ZM258.96875 26.33125Q258.96875 27.55 259.45312 28.1125Q259.9375 28.675 260.67188 28.675Q261.40625 28.675 261.89062 28.1125Q262.39062 27.55 262.39062 26.3625Q262.39062 25.221874 261.875 24.64375Q261.375 24.065624 260.65625 24.065624Q259.95312 24.065624 259.45312 24.64375Q258.96875 25.20625 258.96875 26.33125ZM269.54688 27.55L270.64062 27.675Q270.39062 28.628124 269.6875 29.159374Q268.98438 29.690624 267.90625 29.690624Q266.54688 29.690624 265.73438 28.846874Q264.9375 28.003124 264.9375 26.4875Q264.9375 24.925 265.75 24.065624Q266.5625 23.190624 267.84375 23.190624Q269.09375 23.190624 269.875 24.034374Q270.67188 24.878124 270.67188 26.425Q270.67188 26.51875 270.67188 26.70625L266.03125 26.70625Q266.09375 27.7375 266.60938 28.284374Q267.125 28.815624 267.90625 28.815624Q268.48438 28.815624 268.89062 28.51875Q269.3125 28.20625 269.54688 27.55ZM266.09375 25.846874L269.5625 25.846874Q269.5 25.05 269.17188 24.659374Q268.65625 24.05 267.85938 24.05Q267.125 24.05 266.625 24.534374Q266.14062 25.01875 266.09375 25.846874Z" fill-rule="nonzero"/><path fill="#ea4335" d="M287.5 20.55C287.5 19.997715 287.94772 19.55 288.5 19.55L298.5 19.55C299.05228 19.55 299.5 19.997715 299.5 20.55L299.5 30.55C299.5 31.102285 299.05228 31.55 298.5 31.55L288.5 31.55C287.94772 31.55 287.5 31.102285 287.5 30.55Z" fill-rule="nonzero"/><path fill="#1a1a1a" d="M309.92188 29.55L307.64062 20.95625L308.8125 20.95625L310.125 26.596874Q310.32812 27.471874 310.48438 28.346874Q310.8125 26.971874 310.875 26.753124L312.5 20.95625L313.875 20.95625L315.10938 25.3Q315.5625 26.925 315.78125 28.346874Q315.9375 27.534374 316.20312 26.471874L317.54688 20.95625L318.6875 20.95625L316.34375 29.55L315.23438 29.55L313.4375 23.003124Q313.20312 22.190624 313.15625 22.003124Q313.03125 22.58125 312.90625 23.003124L311.09375 29.55L309.92188 29.55ZM319.28125 29.55L319.28125 23.33125L320.23438 23.33125L320.23438 24.26875Q320.59375 23.6125 320.89062 23.409374Q321.20312 23.190624 321.57812 23.190624Q322.10938 23.190624 322.65625 23.51875L322.29688 24.503124Q321.90625 24.26875 321.53125 24.26875Q321.17188 24.26875 320.89062 24.4875Q320.625 24.690624 320.51562 25.065624Q320.32812 25.628124 320.32812 26.284374L320.32812 29.55L319.28125 29.55ZM323.29688 22.175L323.29688 20.95625L324.35938 20.95625L324.35938 22.175L323.29688 22.175ZM323.29688 29.55L323.29688 23.33125L324.35938 23.33125L324.35938 29.55L323.29688 29.55ZM325.875 27.690624L326.90625 27.534374Q327.0 28.159374 327.39062 28.4875Q327.79688 28.815624 328.53125 28.815624Q329.25 28.815624 329.59375 28.534374Q329.95312 28.2375 329.95312 27.83125Q329.95312 27.471874 329.64062 27.26875Q329.42188 27.128124 328.5625 26.909374Q327.40625 26.6125 326.95312 26.409374Q326.51562 26.190624 326.28125 25.815624Q326.04688 25.440624 326.04688 24.971874Q326.04688 24.565624 326.23438 24.20625Q326.42188 23.846874 326.75 23.6125Q327.0 23.440624 327.42188 23.315624Q327.84375 23.190624 328.34375 23.190624Q329.0625 23.190624 329.60938 23.409374Q330.17188 23.6125 330.4375 23.971874Q330.70312 24.33125 330.79688 24.925L329.76562 25.065624Q329.70312 24.596874 329.35938 24.33125Q329.03125 24.05 328.40625 24.05Q327.6875 24.05 327.375 24.3Q327.0625 24.534374 327.0625 24.8625Q327.0625 25.065624 327.1875 25.221874Q327.32812 25.39375 327.59375 25.503124Q327.75 25.565624 328.53125 25.76875Q329.65625 26.08125 330.09375 26.26875Q330.53125 26.45625 330.78125 26.815624Q331.03125 27.175 331.03125 27.721874Q331.03125 28.253124 330.71875 28.721874Q330.42188 29.175 329.84375 29.440624Q329.26562 29.690624 328.53125 29.690624Q327.3125 29.690624 326.67188 29.190624Q326.04688 28.675 325.875 27.690624ZM334.59375 28.6125L334.75 29.534374Q334.29688 29.628124 333.95312 29.628124Q333.375 29.628124 333.0625 29.45625Q332.75 29.26875 332.60938 28.971874Q332.48438 28.675 332.48438 27.721874L332.48438 24.14375L331.71875 24.14375L331.71875 23.33125L332.48438 23.33125L332.48438 21.784374L333.53125 21.159374L333.53125 23.33125L334.59375 23.33125L334.59375 24.14375L333.53125 24.14375L333.53125 27.784374Q333.53125 28.2375 333.57812 28.3625Q333.64062 28.4875 333.76562 28.565624Q333.89062 28.64375 334.125 28.64375Q334.3125 28.64375 334.59375 28.6125ZM342.375 29.55L342.375 28.628124Q341.64062 29.690624 340.39062 29.690624Q339.84375 29.690624 339.35938 29.4875Q338.89062 29.26875 338.65625 28.95625Q338.42188 28.628124 338.32812 28.159374Q338.26562 27.8625 338.26562 27.175L338.26562 23.33125L339.32812 23.33125L339.32812 26.784374Q339.32812 27.596874 339.39062 27.89375Q339.48438 28.3 339.79688 28.55Q340.125 28.784374 340.60938 28.784374Q341.07812 28.784374 341.48438 28.55Q341.90625 28.3 342.07812 27.878124Q342.26562 27.45625 342.26562 26.659374L342.26562 23.33125L343.3125 23.33125L343.3125 29.55L342.375 29.55ZM344.875 27.690624L345.90625 27.534374Q346.0 28.159374 346.39062 28.4875Q346.79688 28.815624 347.53125 28.815624Q348.25 28.815624 348.59375 28.534374Q348.95312 28.2375 348.95312 27.83125Q348.95312 27.471874 348.64062 27.26875Q348.42188 27.128124 347.5625 26.909374Q346.40625 26.6125 345.95312 26.409374Q345.51562 26.190624 345.28125 25.815624Q345.04688 25.440624 345.04688 24.971874Q345.04688 24.565624 345.23438 24.20625Q345.42188 23.846874 345.75 23.6125Q346.0 23.440624 346.42188 23.315624Q346.84375 23.190624 347.34375 23.190624Q348.0625 23.190624 348.60938 23.409374Q349.17188 23.6125 349.4375 23.971874Q349.70312 24.33125 349.79688 24.925L348.76562 25.065624Q348.70312 24.596874 348.35938 24.33125Q348.03125 24.05 347.40625 24.05Q346.6875 24.05 346.375 24.3Q346.0625 24.534374 346.0625 24.8625Q346.0625 25.065624 346.1875 25.221874Q346.32812 25.39375 346.59375 25.503124Q346.75 25.565624 347.53125 25.76875Q348.65625 26.08125 349.09375 26.26875Q349.53125 26.45625 349.78125 26.815624Q350.03125 27.175 350.03125 27.721874Q350.03125 28.253124 349.71875 28.721874Q349.42188 29.175 348.84375 29.440624Q348.26562 29.690624 347.53125 29.690624Q346.3125 29.690624 345.67188 29.190624Q345.04688 28.675 344.875 27.690624ZM355.35938 28.784374Q354.76562 29.284374 354.21875 29.4875Q353.6875 29.690624 353.0625 29.690624Q352.03125 29.690624 351.48438 29.190624Q350.9375 28.690624 350.9375 27.909374Q350.9375 27.45625 351.14062 27.08125Q351.34375 26.690624 351.6875 26.471874Q352.03125 26.2375 352.45312 26.128124Q352.75 26.034374 353.39062 25.95625Q354.65625 25.815624 355.26562 25.596874Q355.26562 25.378124 355.26562 25.33125Q355.26562 24.675 354.96875 24.409374Q354.5625 24.065624 353.76562 24.065624Q353.03125 24.065624 352.67188 24.33125Q352.3125 24.58125 352.14062 25.2375L351.10938 25.096874Q351.25 24.440624 351.57812 24.034374Q351.90625 23.628124 352.51562 23.409374Q353.125 23.190624 353.92188 23.190624Q354.71875 23.190624 355.21875 23.378124Q355.71875 23.565624 355.95312 23.846874Q356.1875 24.128124 356.28125 24.565624Q356.32812 24.83125 356.32812 25.534374L356.32812 26.940624Q356.32812 28.409374 356.39062 28.8Q356.46875 29.190624 356.67188 29.55L355.5625 29.55Q355.40625 29.221874 355.35938 28.784374ZM355.26562 26.425Q354.6875 26.659374 353.54688 26.83125Q352.89062 26.925 352.625 27.05Q352.35938 27.159374 352.20312 27.378124Q352.0625 27.596874 352.0625 27.878124Q352.0625 28.3 352.375 28.58125Q352.70312 28.8625 353.3125 28.8625Q353.92188 28.8625 354.39062 28.596874Q354.875 28.33125 355.09375 27.8625Q355.26562 27.503124 355.26562 26.815624L355.26562 26.425ZM358.09375 30.065624L359.125 30.221874Q359.1875 30.690624 359.48438 30.909374Q359.875 31.20625 360.54688 31.20625Q361.28125 31.20625 361.67188 30.909374Q362.07812 30.6125 362.21875 30.096874Q362.3125 29.76875 362.29688 28.7375Q361.60938 29.55 360.57812 29.55Q359.29688 29.55 358.59375 28.628124Q357.89062 27.690624 357.89062 26.409374Q357.89062 25.51875 358.20312 24.76875Q358.53125 24.003124 359.14062 23.596874Q359.75 23.190624 360.57812 23.190624Q361.6875 23.190624 362.40625 24.08125L362.40625 23.33125L363.375 23.33125L363.375 28.70625Q363.375 30.159374 363.07812 30.76875Q362.78125 31.378124 362.14062 31.721874Q361.5 32.08125 360.5625 32.08125Q359.45312 32.08125 358.76562 31.58125Q358.07812 31.08125 358.09375 30.065624ZM358.96875 26.33125Q358.96875 27.55 359.45312 28.1125Q359.9375 28.675 360.67188 28.675Q361.40625 28.675 361.89062 28.1125Q362.39062 27.55 362.39062 26.3625Q362.39062 25.221874 361.875 24.64375Q361.375 24.065624 360.65625 24.065624Q359.95312 24.065624 359.45312 24.64375Q358.96875 25.20625 358.96875 26.33125ZM369.54688 27.55L370.64062 27.675Q370.39062 28.628124 369.6875 29.159374Q368.98438 29.690624 367.90625 29.690624Q366.54688 29.690624 365.73438 28.846874Q364.9375 28.003124 364.9375 26.4875Q364.9375 24.925 365.75 24.065624Q366.5625 23.190624 367.84375 23.190624Q369.09375 23.190624 369.875 24.034374Q370.67188 24.878124 370.67188 26.425Q370.67188 26.51875 370.67188 26.70625L366.03125 26.70625Q366.09375 27.7375 366.60938 28.284374Q367.125 28.815624 367.90625 28.815624Q368.48438 28.815624 368.89062 28.51875Q369.3125 28.20625 369.54688 27.55ZM366.09375 25.846874L369.5625 25.846874Q369.5 25.05 369.17188 24.659374Q368.65625 24.05 367.85938 24.05Q367.125 24.05 366.625 24.534374Q366.14062 25.01875 366.09375 25.846874Z" fill-rule="nonzero"/></svg>